<svg width="66" height="46" viewBox="0 0 66 46" fill="none" xmlns="http://www.w3.org/2000/svg">
<path d="M59.4375 34.6949C45.1003 21.756 35.7426 34.1108 22.982 23.499C13.3697 15.5052 10.3205 12.6959 2.42542 12.2424" stroke="#D4BBE8"/>
<path d="M57.517 31.3989C43.1385 18.4449 33.7702 30.7959 20.9735 20.1709C13.5152 13.9783 9.99688 10.8933 5.12158 9.60121" stroke="#BF8DB6" stroke-width="2" stroke-linecap="round"/>
<path d="M60.8582 31.6021C61.5447 32.9802 61.8879 33.6692 61.5691 34.1506C61.2503 34.6319 60.4819 34.5846 58.9452 34.4901L56.848 34.3612C55.3113 34.2667 54.543 34.2194 54.2855 33.7027C54.0281 33.1859 54.4532 32.5441 55.3034 31.2605L56.4637 29.5088C57.3138 28.2252 57.7389 27.5834 58.3152 27.6188C58.8915 27.6543 59.2347 28.3433 59.9212 29.7214L60.8582 31.6021Z" fill="#BF8DB6"/>
</svg>
