<svg width="16" height="16" viewBox="0 0 16 16" fill="none" xmlns="http://www.w3.org/2000/svg">
<path d="M8 2C6.4087 2 4.88258 2.63214 3.75736 3.75736C2.63214 4.88258 2 6.4087 2 8C2 9.5913 2.63214 11.1174 3.75736 12.2426C4.88258 13.3679 6.4087 14 8 14C9.5913 14 11.1174 13.3679 12.2426 12.2426C13.3679 11.1174 14 9.5913 14 8C14 6.4087 13.3679 4.88258 12.2426 3.75736C11.1174 2.63214 9.5913 2 8 2ZM0.5 8C0.5 3.85775 3.85775 0.5 8 0.5C12.1423 0.5 15.5 3.85775 15.5 8C15.5 12.1423 12.1423 15.5 8 15.5C3.85775 15.5 0.5 12.1423 0.5 8Z" fill="#7A7790"/>
<path d="M10.7804 5.96971C10.921 6.11036 11 6.30109 11 6.49996C11 6.69883 10.921 6.88957 10.7804 7.03021L7.78037 10.0302C7.63973 10.1708 7.44899 10.2498 7.25012 10.2498C7.05125 10.2498 6.86052 10.1708 6.71987 10.0302L5.21987 8.53021C5.14824 8.46103 5.0911 8.37827 5.0518 8.28677C5.01249 8.19526 4.9918 8.09685 4.99093 7.99726C4.99007 7.89768 5.00905 7.79892 5.04676 7.70675C5.08447 7.61457 5.14016 7.53084 5.21058 7.46042C5.281 7.39 5.36473 7.33431 5.45691 7.2966C5.54908 7.25889 5.64784 7.23991 5.74742 7.24077C5.84701 7.24164 5.94542 7.26233 6.03693 7.30164C6.12843 7.34094 6.21119 7.39808 6.28037 7.46971L7.25012 8.43946L9.71987 5.96971C9.86052 5.82911 10.0512 5.75012 10.2501 5.75012C10.449 5.75012 10.6397 5.82911 10.7804 5.96971Z" fill="#7A7790"/>
</svg>
