<svg width="116" height="24" viewBox="0 0 116 24" fill="none" xmlns="http://www.w3.org/2000/svg">
<path d="M8.43359 3.64453C7.06641 3.64453 6.00781 4.16016 5.25781 5.19141C4.50781 6.21484 4.13281 7.64453 4.13281 9.48047C4.13281 13.3008 5.56641 15.2109 8.43359 15.2109C9.63672 15.2109 11.0938 14.9102 12.8047 14.3086V17.3555C11.3984 17.9414 9.82812 18.2344 8.09375 18.2344C5.60156 18.2344 3.69531 17.4805 2.375 15.9727C1.05469 14.457 0.394531 12.2852 0.394531 9.45703C0.394531 7.67578 0.71875 6.11719 1.36719 4.78125C2.01562 3.4375 2.94531 2.41016 4.15625 1.69922C5.375 0.980469 6.80078 0.621094 8.43359 0.621094C10.0977 0.621094 11.7695 1.02344 13.4492 1.82812L12.2773 4.78125C11.6367 4.47656 10.9922 4.21094 10.3438 3.98438C9.69531 3.75781 9.05859 3.64453 8.43359 3.64453ZM23.4922 4.65234C23.9766 4.65234 24.3789 4.6875 24.6992 4.75781L24.4297 8.10938C24.1406 8.03125 23.7891 7.99219 23.375 7.99219C22.2344 7.99219 21.3438 8.28516 20.7031 8.87109C20.0703 9.45703 19.7539 10.2773 19.7539 11.332V18H16.1797V4.89844H18.8867L19.4141 7.10156H19.5898C19.9961 6.36719 20.543 5.77734 21.2305 5.33203C21.9258 4.87891 22.6797 4.65234 23.4922 4.65234ZM25.2031 4.89844H29.1172L31.5898 12.2695C31.8008 12.9102 31.9453 13.668 32.0234 14.543H32.0938C32.1797 13.7383 32.3477 12.9805 32.5977 12.2695L35.0234 4.89844H38.8555L33.3125 19.6758C32.8047 21.043 32.0781 22.0664 31.1328 22.7461C30.1953 23.4258 29.0977 23.7656 27.8398 23.7656C27.2227 23.7656 26.6172 23.6992 26.0234 23.5664V20.7305C26.4531 20.832 26.9219 20.8828 27.4297 20.8828C28.0625 20.8828 28.6133 20.6875 29.082 20.2969C29.5586 19.9141 29.9297 19.332 30.1953 18.5508L30.4062 17.9062L25.2031 4.89844ZM47.9375 18.2344C46.3984 18.2344 45.1914 17.6758 44.3164 16.5586H44.1289C44.2539 17.6523 44.3164 18.2852 44.3164 18.457V23.7656H40.7422V4.89844H43.6484L44.1523 6.59766H44.3164C45.1523 5.30078 46.3906 4.65234 48.0312 4.65234C49.5781 4.65234 50.7891 5.25 51.6641 6.44531C52.5391 7.64062 52.9766 9.30078 52.9766 11.4258C52.9766 12.8242 52.7695 14.0391 52.3555 15.0703C51.9492 16.1016 51.3672 16.8867 50.6094 17.4258C49.8516 17.9648 48.9609 18.2344 47.9375 18.2344ZM46.8828 7.51172C46 7.51172 45.3555 7.78516 44.9492 8.33203C44.543 8.87109 44.332 9.76562 44.3164 11.0156V11.4023C44.3164 12.8086 44.5234 13.8164 44.9375 14.4258C45.3594 15.0352 46.0234 15.3398 46.9297 15.3398C48.5312 15.3398 49.332 14.0195 49.332 11.3789C49.332 10.0898 49.1328 9.125 48.7344 8.48438C48.3438 7.83594 47.7266 7.51172 46.8828 7.51172ZM61.4492 15.3867C62.0742 15.3867 62.8242 15.25 63.6992 14.9766V17.6367C62.8086 18.0352 61.7148 18.2344 60.418 18.2344C58.9883 18.2344 57.9453 17.875 57.2891 17.1562C56.6406 16.4297 56.3164 15.3438 56.3164 13.8984V7.58203H54.6055V6.07031L56.5742 4.875L57.6055 2.10938H59.8906V4.89844H63.5586V7.58203H59.8906V13.8984C59.8906 14.4062 60.0312 14.7812 60.3125 15.0234C60.6016 15.2656 60.9805 15.3867 61.4492 15.3867ZM69.207 11.4258C69.207 12.7227 69.418 13.7031 69.8398 14.3672C70.2695 15.0312 70.9648 15.3633 71.9258 15.3633C72.8789 15.3633 73.5625 15.0352 73.9766 14.3789C74.3984 13.7148 74.6094 12.7305 74.6094 11.4258C74.6094 10.1289 74.3984 9.15625 73.9766 8.50781C73.5547 7.85938 72.8633 7.53516 71.9023 7.53516C70.9492 7.53516 70.2617 7.85938 69.8398 8.50781C69.418 9.14844 69.207 10.1211 69.207 11.4258ZM78.2656 11.4258C78.2656 13.5586 77.7031 15.2266 76.5781 16.4297C75.4531 17.6328 73.8867 18.2344 71.8789 18.2344C70.6211 18.2344 69.5117 17.9609 68.5508 17.4141C67.5898 16.8594 66.8516 16.0664 66.3359 15.0352C65.8203 14.0039 65.5625 12.8008 65.5625 11.4258C65.5625 9.28516 66.1211 7.62109 67.2383 6.43359C68.3555 5.24609 69.9258 4.65234 71.9492 4.65234C73.207 4.65234 74.3164 4.92578 75.2773 5.47266C76.2383 6.01953 76.9766 6.80469 77.4922 7.82812C78.0078 8.85156 78.2656 10.0508 78.2656 11.4258Z" fill="#333333"/>
<path d="M80.7148 16.3242C80.7148 15.668 80.8906 15.1719 81.2422 14.8359C81.5938 14.5 82.1055 14.332 82.7773 14.332C83.4258 14.332 83.9258 14.5039 84.2773 14.8477C84.6367 15.1914 84.8164 15.6836 84.8164 16.3242C84.8164 16.9414 84.6367 17.4297 84.2773 17.7891C83.918 18.1406 83.418 18.3164 82.7773 18.3164C82.1211 18.3164 81.6133 18.1445 81.2539 17.8008C80.8945 17.4492 80.7148 16.957 80.7148 16.3242Z" fill="#F5CC3B"/>
<path d="M93.4883 15.4336C94.3945 15.4336 95.0586 15.1758 95.4805 14.6602C95.9023 14.1367 96.1328 13.2266 96.1719 11.9297V11.4961C96.1719 10.0898 95.9531 9.08203 95.5156 8.47266C95.0859 7.86328 94.3906 7.55859 93.4297 7.55859C91.75 7.55859 90.9102 8.87891 90.9102 11.5195C90.9102 12.832 91.1172 13.8125 91.5312 14.4609C91.9531 15.1094 92.6055 15.4336 93.4883 15.4336ZM92.2109 18.2344C90.6641 18.2344 89.4531 17.6406 88.5781 16.4531C87.7031 15.2578 87.2656 13.5977 87.2656 11.4727C87.2656 9.33203 87.7109 7.66016 88.6016 6.45703C89.5 5.25391 90.7266 4.65234 92.2812 4.65234C93.1094 4.65234 93.832 4.80859 94.4492 5.12109C95.0664 5.43359 95.6094 5.91797 96.0781 6.57422H96.1719L96.4883 4.89844H99.5117V23.7656H95.9258V18.2695C95.9258 17.793 95.9766 17.1367 96.0781 16.3008H95.9258C95.543 16.9336 95.0352 17.4141 94.4023 17.7422C93.7695 18.0703 93.0391 18.2344 92.2109 18.2344ZM112.531 18L112.051 16.3242H111.863C111.48 16.9336 110.938 17.4062 110.234 17.7422C109.531 18.0703 108.73 18.2344 107.832 18.2344C106.293 18.2344 105.133 17.8242 104.352 17.0039C103.57 16.1758 103.18 14.9883 103.18 13.4414V4.89844H106.754V12.5508C106.754 13.4961 106.922 14.207 107.258 14.6836C107.594 15.1523 108.129 15.3867 108.863 15.3867C109.863 15.3867 110.586 15.0547 111.031 14.3906C111.477 13.7188 111.699 12.6094 111.699 11.0625V4.89844H115.273V18H112.531Z" fill="#8955F6"/>
</svg>
