<svg width="48" height="48" viewBox="0 0 48 48" fill="none" xmlns="http://www.w3.org/2000/svg">
<circle cx="24" cy="24" r="23.25" stroke="#CAD4EC" stroke-width="1.5"/>
<path d="M28.5 12H19.5C15.3585 12 12 15.3585 12 19.5V28.5C12 32.6415 15.3585 36 19.5 36H28.5C32.6415 36 36 32.6415 36 28.5V19.5C36 15.3585 32.6415 12 28.5 12ZM33.75 28.5C33.75 31.395 31.395 33.75 28.5 33.75H19.5C16.605 33.75 14.25 31.395 14.25 28.5V19.5C14.25 16.605 16.605 14.25 19.5 14.25H28.5C31.395 14.25 33.75 16.605 33.75 19.5V28.5Z" fill="#98A2BA"/>
<path d="M23.9997 18.0001C20.6862 18.0001 17.9997 20.6866 17.9997 24.0001C17.9997 27.3136 20.6862 30.0001 23.9997 30.0001C27.3132 30.0001 29.9997 27.3136 29.9997 24.0001C29.9997 20.6866 27.3132 18.0001 23.9997 18.0001ZM23.9997 27.7501C21.9327 27.7501 20.2497 26.0671 20.2497 24.0001C20.2497 21.9316 21.9327 20.2501 23.9997 20.2501C26.0667 20.2501 27.7497 21.9316 27.7497 24.0001C27.7497 26.0671 26.0667 27.7501 23.9997 27.7501Z" fill="#98A2BA"/>
<path d="M30.6466 18.3254C31.0746 18.2167 31.3334 17.7817 31.2247 17.3537C31.116 16.9258 30.681 16.6669 30.253 16.7756C29.8251 16.8843 29.5662 17.3193 29.6749 17.7473C29.7836 18.1753 30.2186 18.4341 30.6466 18.3254Z" fill="#98A2BA"/>
</svg>
