<svg width="48" height="48" viewBox="0 0 48 48" fill="none" xmlns="http://www.w3.org/2000/svg">
<circle cx="24" cy="24" r="23.25" stroke="#CAD4EC" stroke-width="1.5"/>
<path d="M19.8192 33.0106C28.3102 33.0106 32.9536 25.9761 32.9536 19.8762C32.9536 19.6765 32.9494 19.4775 32.9405 19.2796C33.8418 18.628 34.6251 17.8148 35.2432 16.8891C34.4161 17.2569 33.5258 17.5042 32.5922 17.6161C33.5452 17.0444 34.277 16.1403 34.6221 15.0627C33.7302 15.5915 32.7424 15.9756 31.6908 16.1831C30.8485 15.2859 29.649 14.7247 28.3211 14.7247C25.7719 14.7247 23.7045 16.792 23.7045 19.3403C23.7045 19.7027 23.7451 20.055 23.8243 20.3929C19.9876 20.1999 16.5854 18.3631 14.3088 15.5699C13.9125 16.2519 13.6839 17.0445 13.6839 17.8902C13.6839 19.4915 14.4988 20.9056 15.7381 21.7326C14.9807 21.7093 14.2693 21.5014 13.6474 21.1554C13.6467 21.1748 13.6467 21.1936 13.6467 21.2142C13.6467 23.4499 15.2379 25.3166 17.3504 25.7396C16.9624 25.8451 16.5541 25.9019 16.1331 25.9019C15.8362 25.9019 15.5467 25.8727 15.2654 25.8187C15.8531 27.6528 17.5574 28.9875 19.5779 29.025C17.9978 30.2634 16.0075 31.001 13.8443 31.001C13.4722 31.001 13.1044 30.9797 12.7431 30.937C14.7862 32.2465 17.2121 33.0108 19.8193 33.0108" fill="#98A2BA"/>
</svg>
