<svg width="64" height="64" viewBox="0 0 64 64" fill="none" xmlns="http://www.w3.org/2000/svg">
<circle cx="32" cy="32" r="32" fill="#F2ECFE"/>
<path d="M19.3333 21.3333H44.6666C46.5076 21.3333 47.9999 22.8257 47.9999 24.6666V39.3333C47.9999 41.1742 46.5076 42.6666 44.6666 42.6666H19.3333C17.4924 42.6667 16 41.1743 16 39.3333V24.6667C16 22.8257 17.4924 21.3333 19.3333 21.3333Z" fill="#9465F6"/>
<path d="M48 25.3333H16V30.6666H48V25.3333Z" fill="#796184"/>
<path d="M26 36H20.6667C20.2985 36 20 35.7015 20 35.3333C20 34.9651 20.2985 34.6666 20.6667 34.6666H26C26.3682 34.6666 26.6667 34.9651 26.6667 35.3333C26.6667 35.7015 26.3682 36 26 36Z" fill="white"/>
<path d="M30 38.6667H20.6667C20.2985 38.6667 20 38.3682 20 38.0001C20 37.6319 20.2985 37.3334 20.6667 37.3334H30C30.3682 37.3334 30.6667 37.6319 30.6667 38.0001C30.6667 38.3682 30.3682 38.6667 30 38.6667Z" fill="white"/>
</svg>
