<svg width="64" height="64" viewBox="0 0 64 64" fill="none" xmlns="http://www.w3.org/2000/svg">
<circle cx="32" cy="32" r="32" fill="#F2ECFE"/>
<g clip-path="url(#clip0)">
<rect x="29.1569" y="16" width="30" height="19.5" transform="rotate(45.4933 29.1569 16)" fill="white"/>
<path d="M50.6034 33.0827L35.1985 17.6779C34.1327 16.612 32.6577 16 31.1492 16H19.2728C17.4686 16 16 17.4677 16 19.2728V31.1484C16 32.6769 16.5961 34.1159 17.6779 35.1985L33.0827 50.6034C33.984 51.5039 35.1825 52 36.4545 52C37.7265 52 38.925 51.5038 39.8263 50.6034L50.6033 39.8264C51.5046 38.9267 51.9999 37.729 51.9999 36.4546C51.9999 35.1802 51.5046 33.9824 50.6034 33.0827ZM24.8595 26.0168L23.1239 27.7526C22.9642 27.9124 22.7548 27.9923 22.5454 27.9923C22.3361 27.9923 22.1268 27.9124 21.9669 27.7526C21.6473 27.433 21.6473 26.9152 21.9669 26.5957L24.28 24.2822C24.28 24.2822 24.2804 24.2814 24.2808 24.281C24.2812 24.2806 24.2816 24.2806 24.2816 24.2806L26.5947 21.9671C26.9015 21.6603 27.4448 21.6603 27.7516 21.9671L30.0656 24.281C30.3852 24.6007 30.3852 25.1184 30.0656 25.438C29.7459 25.7576 29.2282 25.7576 28.9086 25.438L27.1732 23.7025L26.0162 24.8597L27.1732 26.0172C27.4928 26.3369 27.4928 26.8546 27.1732 27.1742C27.0134 27.3339 26.804 27.4139 26.5947 27.4139C26.3853 27.4139 26.176 27.3339 26.0162 27.1742L24.8595 26.0168ZM29.4872 34.9348C29.2779 34.9348 29.0685 34.8549 28.9087 34.6951C28.5891 34.3755 28.5891 33.857 28.9087 33.5382L30.0672 32.3804C30.3853 32.0616 30.3853 31.5423 30.0672 31.2226L29.4871 30.645L27.7517 32.3804C27.4321 32.7 26.9143 32.7 26.5947 32.3804C26.2751 32.0608 26.2751 31.543 26.5947 31.2235L28.8879 28.9319C28.8943 28.924 28.9007 28.9167 28.9087 28.9095C28.9151 28.9023 28.9231 28.8951 28.9311 28.888L31.2243 26.5957C31.5439 26.276 32.0616 26.276 32.3812 26.5957L33.5381 27.7526C34.4953 28.7098 34.4953 30.2663 33.5381 31.2235C33.1067 31.6549 32.5426 31.9066 31.9369 31.9386C31.9049 32.5211 31.6668 33.094 31.2242 33.5374L30.0656 34.6952C29.9059 34.8549 29.6965 34.9348 29.4872 34.9348ZM34.6951 38.166C35.0148 38.4856 35.0148 39.0034 34.6951 39.323C34.5354 39.4827 34.326 39.5627 34.1166 39.5627C33.9073 39.5627 33.698 39.4827 33.5381 39.323L31.2242 37.009C30.9045 36.6894 30.9045 36.1716 31.2242 35.8521L35.852 31.2234C36.0054 31.07 36.2131 30.9837 36.4305 30.9837C36.6479 30.9837 36.8556 31.07 37.009 31.2234L39.323 33.5381C39.6426 33.8578 39.6426 34.3755 39.323 34.6951C39.0033 35.0147 38.4856 35.0147 38.166 34.6951L36.4306 32.9589L35.2733 34.1163L36.4306 35.2736C36.7502 35.5932 36.7502 36.1109 36.4306 36.4305C36.2708 36.5903 36.0614 36.6702 35.8521 36.6702C35.6427 36.6702 35.4334 36.5903 35.2736 36.4305L34.1165 35.2734L32.9596 36.4305L34.6951 38.166ZM43.9508 39.323C43.6312 39.6426 43.1135 39.6426 42.7939 39.323L41.0585 37.5875L39.9015 38.7444L41.0585 39.9014C41.3781 40.221 41.3781 40.7388 41.0585 41.0583C40.8987 41.2181 40.6893 41.298 40.48 41.298C40.2706 41.298 40.0613 41.2181 39.9015 41.0583L38.7445 39.9014L37.5876 41.0583L39.323 42.7945C39.6427 43.1142 39.6427 43.6319 39.323 43.9515C39.1633 44.1112 38.9539 44.1912 38.7445 44.1912C38.5352 44.1912 38.3259 44.1112 38.166 43.9515L35.8521 41.6367C35.5324 41.3171 35.5324 40.7994 35.8521 40.4798L40.4799 35.852C40.7995 35.5324 41.3173 35.5324 41.6368 35.852L43.9508 38.1659C44.2705 38.4856 44.2705 39.0034 43.9508 39.323Z" fill="#9465F6"/>
<path d="M31.8011 30.3062H31.8027C32.0217 30.3062 32.2262 30.2207 32.3813 30.0665C32.7009 29.7477 32.7009 29.2283 32.3813 28.9096L31.8027 28.3311L30.6458 29.488L31.2243 30.0657C31.3793 30.2215 31.5838 30.3062 31.8011 30.3062Z" fill="#9465F6"/>
</g>
<defs>
<clipPath id="clip0">
<rect width="36" height="36" fill="white" transform="translate(16 16)"/>
</clipPath>
</defs>
</svg>
