<svg width="64" height="64" viewBox="0 0 64 64" fill="none" xmlns="http://www.w3.org/2000/svg">
<circle cx="32" cy="32" r="32" fill="#F2ECFE"/>
<rect x="24" y="26" width="18" height="11" fill="white"/>
<path d="M47.1111 23.2664C47.068 22.3193 47.068 21.4152 47.068 20.5112C47.068 19.7794 46.5084 19.2197 45.7766 19.2197C40.3954 19.2197 36.3057 17.67 32.9048 14.3552C32.3882 13.8816 31.6133 13.8816 31.0967 14.3552C27.6958 17.67 23.6062 19.2197 18.225 19.2197C17.4932 19.2197 16.9335 19.7794 16.9335 20.5112C16.9335 21.4152 16.9335 22.3193 16.8905 23.2664C16.7183 32.3067 16.46 44.7049 31.5703 49.9139L32.0008 50L32.4313 49.9139C47.4985 44.7049 47.2833 32.3498 47.1111 23.2664ZM30.9676 35.7937C30.7093 36.009 30.4079 36.1381 30.0636 36.1381H30.0205C29.6761 36.1381 29.3317 35.9659 29.1165 35.7076L25.1129 31.2735L27.0501 29.5516L30.1927 33.0386L37.1667 26.409L38.9317 28.3031L30.9676 35.7937Z" fill="#9465F6"/>
</svg>
